STARTFONT 2.1
COMMENT
COMMENT Converted from OpenType font "Q:\font stuff\winfont\Mainframe BB.ttf" by "otf2bdf 3.0".
COMMENT
FONT -FreeType-Mainframe BB-Medium-R-Normal--24-240-72-72-P-146-ISO10646-1
SIZE 24 72 72
FONTBOUNDINGBOX 28 25 -1 -4
STARTPROPERTIES 19
FOUNDRY "FreeType"
FAMILY_NAME "Mainframe BB"
WEIGHT_NAME "Medium"
SLANT "R"
SETWIDTH_NAME "Normal"
ADD_STYLE_NAME ""
PIXEL_SIZE 18
POINT_SIZE 240
RESOLUTION_X 72
RESOLUTION_Y 72
SPACING "P"
AVERAGE_WIDTH 146
CHARSET_REGISTRY "ISO10646"
CHARSET_ENCODING "1"
FONT_ASCENT 21
FONT_DESCENT 4
COPYRIGHT "© 2005 Nate Piekos. www.blambot.com"
_OTF_FONTFILE "Q:\font stuff\winfont\Mainframe BB.ttf"
_OTF_PSNAME "MainframeBB"
ENDPROPERTIES
CHARS 105
STARTCHAR 0020
ENCODING 32
SWIDTH 375 0
DWIDTH 9 0
BBX 0 0 0 0
BITMAP
ENDCHAR
STARTCHAR 0021
ENCODING 33
SWIDTH 375 0
DWIDTH 9 0
BBX 6 17 2 0
BITMAP
78
78
78
78
78
78
78
78
78
78
00
00
00
FC
FC
FC
FC
ENDCHAR
STARTCHAR 0022
ENCODING 34
SWIDTH 500 0
DWIDTH 12 0
BBX 9 7 1 10
BITMAP
F780
F780
F780
F780
F780
F780
F780
ENDCHAR
STARTCHAR 0023
ENCODING 35
SWIDTH 791 0
DWIDTH 19 0
BBX 17 17 1 0
BITMAP
1E3C00
1E3C00
1E3C00
FFFF80
FFFF80
FFFF80
FFFF80
1E3C00
1E3C00
FFFF80
FFFF80
FFFF80
FFFF80
1E3C00
1E3C00
1E3C00
1E3C00
ENDCHAR
STARTCHAR 0024
ENCODING 36
SWIDTH 833 0
DWIDTH 20 0
BBX 19 21 0 -2
BITMAP
01F000
01F000
03FF80
07FF80
07FF80
0FFF80
1FF000
3FF000
7DF000
7FFFE0
FFFFE0
7FFFE0
7FFFE0
01F7C0
01FF80
1FFF00
1FFE00
1FFC00
1FF800
01F000
01F000
ENDCHAR
STARTCHAR 0025
ENCODING 37
SWIDTH 750 0
DWIDTH 18 0
BBX 16 17 1 0
BITMAP
3F9F
7FFE
7FFC
7FFC
7BF8
7FF0
7FF0
7FE0
3FFE
07FE
0FFF
0FFF
1FEF
3FFF
3DFF
7DFE
F8FC
ENDCHAR
STARTCHAR 0026
ENCODING 38
SWIDTH 833 0
DWIDTH 20 0
BBX 18 17 1 0
BITMAP
03FF00
07FF00
07FF00
07FF00
078000
078000
078000
FFE3C0
FFE3C0
FFE3C0
FFE3C0
E003C0
F003C0
7FFFC0
7FFFC0
3FFF80
1FFF00
ENDCHAR
STARTCHAR 0027
ENCODING 39
SWIDTH 250 0
DWIDTH 6 0
BBX 5 7 1 10
BITMAP
F8
F8
F8
F8
F8
F8
F8
ENDCHAR
STARTCHAR 0028
ENCODING 40
SWIDTH 333 0
DWIDTH 8 0
BBX 6 21 1 -2
BITMAP
3C
78
78
78
78
F0
F0
F0
F0
F0
F0
F0
F0
F0
F0
F0
78
78
78
78
3C
ENDCHAR
STARTCHAR 0029
ENCODING 41
SWIDTH 291 0
DWIDTH 7 0
BBX 5 21 1 -2
BITMAP
E0
F0
F0
F0
78
78
78
78
78
78
78
78
78
78
78
78
78
F0
F0
F0
E0
ENDCHAR
STARTCHAR 002A
ENCODING 42
SWIDTH 583 0
DWIDTH 14 0
BBX 12 11 1 6
BITMAP
0F00
2F40
7FE0
FFE0
FFF0
3FC0
FFF0
7FE0
7FC0
2F40
0F00
ENDCHAR
STARTCHAR 002B
ENCODING 43
SWIDTH 541 0
DWIDTH 13 0
BBX 12 11 1 3
BITMAP
0F00
0F00
0F00
FFF0
FFF0
FFF0
FFF0
0F00
0F00
0F00
0F00
ENDCHAR
STARTCHAR 002C
ENCODING 44
SWIDTH 333 0
DWIDTH 8 0
BBX 6 7 1 -3
BITMAP
7C
FC
FC
FC
3C
3C
3C
ENDCHAR
STARTCHAR 002D
ENCODING 45
SWIDTH 541 0
DWIDTH 13 0
BBX 11 3 1 7
BITMAP
FFE0
FFE0
FFE0
ENDCHAR
STARTCHAR 002E
ENCODING 46
SWIDTH 375 0
DWIDTH 9 0
BBX 6 4 2 0
BITMAP
F8
FC
FC
F8
ENDCHAR
STARTCHAR 002F
ENCODING 47
SWIDTH 666 0
DWIDTH 16 0
BBX 17 17 -1 0
BITMAP
000F80
001F00
001F00
003E00
007C00
00F800
00F800
01F000
03E000
03C000
07C000
0F8000
1F0000
1F0000
3E0000
7C0000
F80000
ENDCHAR
STARTCHAR 0030
ENCODING 48
SWIDTH 791 0
DWIDTH 19 0
BBX 17 17 1 0
BITMAP
1FFF80
7FFF00
7FFF80
FFFF80
F03F80
F07F80
F07F80
F0FF80
F1F780
F3E780
F3E780
F7C780
FF8780
FFFF80
7FFF80
7FFF00
7FFE00
ENDCHAR
STARTCHAR 0031
ENCODING 49
SWIDTH 291 0
DWIDTH 7 0
BBX 7 17 0 0
BITMAP
F8
FC
FC
FE
3E
3E
3E
3E
3E
3E
3E
3E
3E
3E
3E
3E
3E
ENDCHAR
STARTCHAR 0032
ENCODING 50
SWIDTH 791 0
DWIDTH 19 0
BBX 17 17 1 0
BITMAP
FFE000
FFF000
FFF800
FFFC00
F07E00
003F00
7FFF80
FFFF80
FFFF80
FFFF80
F00000
F00000
F00000
FFFF80
FFFF80
FFFF80
FFFF80
ENDCHAR
STARTCHAR 0033
ENCODING 51
SWIDTH 791 0
DWIDTH 19 0
BBX 17 17 1 0
BITMAP
FFE000
FFF000
FFF000
FFF000
F0F000
00F000
FFFF00
FFFF80
FFFF80
FFFF80
000700
000700
000F00
FFFF00
FFFE00
FFFE00
FFFC00
ENDCHAR
STARTCHAR 0034
ENCODING 52
SWIDTH 750 0
DWIDTH 18 0
BBX 16 17 1 0
BITMAP
3C3C
3C3C
7C3C
783C
783C
F83C
FFFF
FFFF
FFFF
7FFF
003C
003C
003C
003C
003C
003C
003C
ENDCHAR
STARTCHAR 0035
ENCODING 53
SWIDTH 791 0
DWIDTH 19 0
BBX 16 17 2 0
BITMAP
FFFC
FFFC
FFFC
FFFC
E000
E000
E000
FFFF
FFFF
FFFF
FFFF
007E
00FC
FFF8
FFF0
FFE0
FFC0
ENDCHAR
STARTCHAR 0036
ENCODING 54
SWIDTH 791 0
DWIDTH 19 0
BBX 18 17 1 0
BITMAP
00FF00
01FF00
03FF00
07FF00
0FC000
1F0000
3FFF80
7FFFC0
FFFFC0
FFFFC0
F00380
F00380
F00780
FFFF80
7FFF00
7FFF00
3FFE00
ENDCHAR
STARTCHAR 0037
ENCODING 55
SWIDTH 583 0
DWIDTH 14 0
BBX 14 17 0 0
BITMAP
FFF8
FFFC
FFFC
FFFC
F878
0078
00F8
00F0
00F0
01F0
01E0
01E0
03E0
03C0
03C0
07C0
0780
ENDCHAR
STARTCHAR 0038
ENCODING 56
SWIDTH 791 0
DWIDTH 19 0
BBX 18 17 1 0
BITMAP
0FF800
1FFC00
1FFE00
1FFE00
1E1E00
1E1E00
7FFF00
FFFF80
FFFFC0
FFFFC0
F003C0
F003C0
F003C0
FFFFC0
FFFFC0
FFFF80
7FFF00
ENDCHAR
STARTCHAR 0039
ENCODING 57
SWIDTH 791 0
DWIDTH 19 0
BBX 18 17 1 0
BITMAP
1FFE00
3FFF80
7FFF80
7FFFC0
F003C0
E003C0
FFFFC0
FFFFC0
FFFF80
FFFF80
003F00
007C00
01F800
7FF000
7FE000
7FC000
7F8000
ENDCHAR
STARTCHAR 003A
ENCODING 58
SWIDTH 375 0
DWIDTH 9 0
BBX 6 9 2 0
BITMAP
F8
FC
FC
F8
00
F8
FC
FC
F8
ENDCHAR
STARTCHAR 003B
ENCODING 59
SWIDTH 375 0
DWIDTH 9 0
BBX 6 12 2 -3
BITMAP
F8
FC
FC
F8
00
F8
FC
FC
FC
3C
3C
3C
ENDCHAR
STARTCHAR 003C
ENCODING 60
SWIDTH 416 0
DWIDTH 10 0
BBX 9 21 1 -2
BITMAP
0F80
0F00
1F00
1E00
3E00
3C00
7C00
7800
F800
F000
F000
F000
F800
7800
7C00
3C00
3E00
1E00
1F00
0F00
0F80
ENDCHAR
STARTCHAR 003D
ENCODING 61
SWIDTH 541 0
DWIDTH 13 0
BBX 11 11 1 3
BITMAP
FFE0
FFE0
FFE0
FFE0
0000
0000
0000
FFE0
FFE0
FFE0
FFE0
ENDCHAR
STARTCHAR 003E
ENCODING 62
SWIDTH 416 0
DWIDTH 10 0
BBX 9 21 0 -2
BITMAP
F800
7800
7C00
3C00
3E00
1E00
1F00
0F00
0F80
0780
0780
0F80
0F00
0F00
1F00
1E00
3E00
3C00
7C00
7800
F800
ENDCHAR
STARTCHAR 003F
ENCODING 63
SWIDTH 750 0
DWIDTH 18 0
BBX 14 17 2 0
BITMAP
7F00
7F80
7FC0
7FE0
01F0
00F8
3FFC
7FFC
7FFC
7FFC
7800
0000
0000
FC00
FC00
FC00
FC00
ENDCHAR
STARTCHAR 0040
ENCODING 64
SWIDTH 1125 0
DWIDTH 27 0
BBX 25 17 2 0
BITMAP
3FFFFC00
7FFFFF00
FFFFFF00
FFFFFF80
F0000780
F0000780
F0000780
F0FE0780
F1FF0780
F1FF8780
F1FF8780
F1E78780
F1E78780
F1FFFF80
F1FFFF00
F1FFFF00
F0FFFC00
ENDCHAR
STARTCHAR 0041
ENCODING 65
SWIDTH 791 0
DWIDTH 19 0
BBX 17 17 1 0
BITMAP
00FE00
01FF00
03FF80
07FF80
0FC780
1F8780
3F0780
7E0780
7C0780
F00780
FFFF80
FFFF80
FFFF80
FFFF80
F00780
F00780
F00780
ENDCHAR
STARTCHAR 0042
ENCODING 66
SWIDTH 875 0
DWIDTH 21 0
BBX 19 17 2 0
BITMAP
FFF000
FFF800
FFFC00
FFFC00
F03C00
F03C00
FFFFC0
FFFFC0
FFFFE0
FFFFC0
F003C0
F003C0
F003C0
FFFF80
FFFF80
FFFF80
FFFE00
ENDCHAR
STARTCHAR 0043
ENCODING 67
SWIDTH 791 0
DWIDTH 19 0
BBX 17 17 1 0
BITMAP
00FF80
01FF80
03FF80
07FF80
0FC780
1F0000
3E0000
7C0000
F80000
F00000
F00000
F00000
F00000
FFFF80
FFFF80
7FFF80
3FFF80
ENDCHAR
STARTCHAR 0044
ENCODING 68
SWIDTH 791 0
DWIDTH 19 0
BBX 17 17 1 0
BITMAP
FFFE00
FFFF00
FFFF80
FFFF80
F00780
F00780
F00780
F00780
F00F80
F01F00
F03F00
F07E00
F0FC00
FFF800
FFF000
FFE000
FF8000
ENDCHAR
STARTCHAR 0045
ENCODING 69
SWIDTH 791 0
DWIDTH 19 0
BBX 17 17 1 0
BITMAP
1FFF80
7FFF80
7FFF80
FFFF80
F80000
F00000
F00000
FFFF80
FFFF80
FFFF80
FFFF80
F00000
F00000
FFFC00
FFFC00
FFFC00
FFFC00
ENDCHAR
STARTCHAR 0046
ENCODING 70
SWIDTH 708 0
DWIDTH 17 0
BBX 15 17 1 0
BITMAP
3FFE
7FFE
7FFE
FFFE
F000
F000
F000
FFFE
FFFE
FFFE
FFFE
F000
F000
F000
F000
F000
F000
ENDCHAR
STARTCHAR 0047
ENCODING 71
SWIDTH 791 0
DWIDTH 19 0
BBX 17 17 1 0
BITMAP
00FF80
01FF80
07FF80
0FFF80
1F8780
3F0000
7E7F80
7C7F80
F87F80
F07F80
F00780
F00780
F00780
FFFF80
FFFF80
7FFF80
3FFF80
ENDCHAR
STARTCHAR 0048
ENCODING 72
SWIDTH 833 0
DWIDTH 20 0
BBX 17 17 1 0
BITMAP
F00780
F00780
F00780
F00780
F00780
F00780
FFFF80
FFFF80
FFFF80
FFFF80
F00780
F00780
F00780
F00780
F00780
F00780
F00780
ENDCHAR
STARTCHAR 0049
ENCODING 73
SWIDTH 750 0
DWIDTH 18 0
BBX 16 17 1 0
BITMAP
FFFF
FFFF
FFFF
FFFF
F3C0
03C0
03C0
03C0
03C0
03C0
03C0
03C0
03C0
FFFF
FFFF
FFFF
FFFF
ENDCHAR
STARTCHAR 004A
ENCODING 74
SWIDTH 791 0
DWIDTH 19 0
BBX 17 17 1 0
BITMAP
0FFF80
0FFF80
0FFF80
0FFF80
0F0780
000780
000780
000780
000780
000780
000780
000780
F00780
FFFF80
FFFF80
7FFF00
3FFE00
ENDCHAR
STARTCHAR 004B
ENCODING 75
SWIDTH 791 0
DWIDTH 19 0
BBX 17 17 1 0
BITMAP
F00F80
F03F80
F0FF80
F1FF80
F7F800
FFE000
FFC000
FF0000
FE0000
FF8000
FFC000
FFF000
F3FC00
F1FF80
F07F80
F01F80
F00780
ENDCHAR
STARTCHAR 004C
ENCODING 76
SWIDTH 666 0
DWIDTH 16 0
BBX 15 17 1 0
BITMAP
F000
F000
F000
F000
F000
F000
F000
F000
F000
F000
F000
F000
F000
FFFE
7FFE
7FFE
3FFE
ENDCHAR
STARTCHAR 004D
ENCODING 77
SWIDTH 916 0
DWIDTH 22 0
BBX 20 17 2 0
BITMAP
3E0F80
7F1FC0
FFBFE0
F7FDE0
F3F9F0
F1F0F0
F1F0F0
F0F0F0
F0F0F0
F0F0F0
F0F0F0
F0F0F0
F0F0F0
F0F0F0
F0F0F0
F0F0F0
F0F0F0
ENDCHAR
STARTCHAR 004E
ENCODING 78
SWIDTH 833 0
DWIDTH 20 0
BBX 17 17 1 0
BITMAP
7E0780
FF0780
FF0780
FF8780
F7C780
F3C780
F3E780
F1E780
F1F780
F0F780
F0FF80
F07F80
F07F80
F03F80
F01F80
F01F80
F00780
ENDCHAR
STARTCHAR 004F
ENCODING 79
SWIDTH 833 0
DWIDTH 20 0
BBX 17 17 1 0
BITMAP
1FFE00
7FFF00
7FFF80
FFFF80
F00780
F00780
F00780
F00780
F00780
F00780
F00780
F00780
F00780
7FFF80
7FFF80
7FFF00
1FFE00
ENDCHAR
STARTCHAR 0050
ENCODING 80
SWIDTH 833 0
DWIDTH 20 0
BBX 17 17 2 0
BITMAP
FFFC00
FFFF00
FFFF00
FFFF80
F00780
F00780
F00780
F00780
FFFF80
FFFF00
FFFF00
FFFC00
F00000
F00000
F00000
F00000
F00000
ENDCHAR
STARTCHAR 0051
ENCODING 81
SWIDTH 791 0
DWIDTH 19 0
BBX 18 17 1 0
BITMAP
1FFF00
7FFF80
7FFFC0
FFFFC0
E001C0
E001C0
E001C0
E001C0
E1E1C0
E1E1C0
E1E1C0
E1E1C0
E1E1C0
FFFFC0
7FFFC0
7FFF80
1FFF00
ENDCHAR
STARTCHAR 0052
ENCODING 82
SWIDTH 791 0
DWIDTH 19 0
BBX 17 17 1 0
BITMAP
FFFF00
FFFF80
FFFF80
FFFF80
F00780
F00780
FFFF80
FFFF80
FFFF80
FFFF00
FFC000
FFF000
F3F800
F1FF80
F07F80
F01F80
F00F80
ENDCHAR
STARTCHAR 0053
ENCODING 83
SWIDTH 833 0
DWIDTH 20 0
BBX 19 17 0 0
BITMAP
01FF80
03FF80
07FF80
0FFF80
1F0000
3E0000
7C0000
7FFFE0
FFFFE0
FFFFE0
7FFFE0
0007C0
000F80
1FFF00
1FFE00
1FFC00
1FF800
ENDCHAR
STARTCHAR 0054
ENCODING 84
SWIDTH 708 0
DWIDTH 17 0
BBX 15 17 1 0
BITMAP
FFFE
FFFE
FFFE
FFFE
F3C0
03C0
03C0
03C0
03C0
03C0
03C0
03C0
03C0
03C0
03C0
03C0
03C0
ENDCHAR
STARTCHAR 0055
ENCODING 85
SWIDTH 791 0
DWIDTH 19 0
BBX 17 17 1 0
BITMAP
F00780
F00780
F00780
F00780
F00780
F00780
F00780
F00780
F00780
F00780
F00780
F00780
F00780
FFFF80
7FFF80
7FFF00
1FFE00
ENDCHAR
STARTCHAR 0056
ENCODING 86
SWIDTH 833 0
DWIDTH 20 0
BBX 17 17 1 0
BITMAP
F00780
F00780
F00780
F00780
F00780
F00780
F00780
F00780
F00F80
F01F00
F03F00
F07E00
F0FC00
FFF800
7FF000
7FE000
1F8000
ENDCHAR
STARTCHAR 0057
ENCODING 87
SWIDTH 916 0
DWIDTH 22 0
BBX 20 17 1 0
BITMAP
F0F0F0
F0F0F0
F0F0F0
F0F0F0
F0F0F0
F0F0F0
F0F0F0
F0F0F0
F0F0F0
F0F0F0
F0F8F0
F1F8F0
F9FCF0
FBFFF0
7FDFF0
3F8FE0
1F07C0
ENDCHAR
STARTCHAR 0058
ENCODING 88
SWIDTH 750 0
DWIDTH 18 0
BBX 18 17 0 0
BITMAP
7C0F80
7C0F80
3E1F00
1F3E00
0FFC00
0FFC00
07F800
03F000
03E000
03F800
07F800
0FFC00
1F3E00
3F1F00
3E1F00
7C0F80
F807C0
ENDCHAR
STARTCHAR 0059
ENCODING 89
SWIDTH 708 0
DWIDTH 17 0
BBX 17 17 0 0
BITMAP
F80F80
780F00
7C1F00
3C1E00
1E1E00
1E3C00
0F3C00
0F7C00
07F800
07F800
03F000
03F000
01E000
1FE000
1FC000
1FC000
1F8000
ENDCHAR
STARTCHAR 005A
ENCODING 90
SWIDTH 750 0
DWIDTH 18 0
BBX 16 17 1 0
BITMAP
FFFE
FFFF
FFFF
FFFF
F07E
00FC
01F8
03E0
07C0
0F80
1F00
3E00
7C00
FFFF
FFFF
FFFF
7FFF
ENDCHAR
STARTCHAR 005B
ENCODING 91
SWIDTH 458 0
DWIDTH 11 0
BBX 8 25 2 -4
BITMAP
7F
FF
FF
FF
F0
F0
F0
F0
F0
F0
F0
F0
F0
F0
F0
F0
F0
F0
F0
F0
F0
FF
FF
FF
7F
ENDCHAR
STARTCHAR 005C
ENCODING 92
SWIDTH 666 0
DWIDTH 16 0
BBX 16 17 0 0
BITMAP
F000
F800
7C00
3E00
3E00
1F00
0F80
07C0
07C0
03E0
01F0
01F0
00F8
007C
003E
003E
001F
ENDCHAR
STARTCHAR 005D
ENCODING 93
SWIDTH 416 0
DWIDTH 10 0
BBX 8 25 2 -4
BITMAP
FC
FE
FF
FF
0F
0F
0F
0F
0F
0F
0F
0F
0F
0F
0F
0F
0F
0F
0F
0F
0F
FF
FF
FE
FC
ENDCHAR
STARTCHAR 005E
ENCODING 94
SWIDTH 458 0
DWIDTH 11 0
BBX 9 6 1 12
BITMAP
3E00
FF80
FF80
FF80
E380
8080
ENDCHAR
STARTCHAR 005F
ENCODING 95
SWIDTH 666 0
DWIDTH 16 0
BBX 14 3 1 -3
BITMAP
FFFC
FFFC
FFFC
ENDCHAR
STARTCHAR 0060
ENCODING 96
SWIDTH 333 0
DWIDTH 8 0
BBX 6 7 1 14
BITMAP
80
F0
FC
FC
FC
1C
04
ENDCHAR
STARTCHAR 0061
ENCODING 97
SWIDTH 791 0
DWIDTH 19 0
BBX 17 17 1 0
BITMAP
00FE00
01FF00
03FF80
07FF80
0FC780
1F8780
3F0780
7E0780
7C0780
F00780
FFFF80
FFFF80
FFFF80
FFFF80
F00780
F00780
F00780
ENDCHAR
STARTCHAR 0062
ENCODING 98
SWIDTH 875 0
DWIDTH 21 0
BBX 19 17 2 0
BITMAP
FFF000
FFF800
FFFC00
FFFC00
F03C00
F03C00
FFFFC0
FFFFC0
FFFFE0
FFFFC0
F003C0
F003C0
F003C0
FFFF80
FFFF80
FFFF80
FFFE00
ENDCHAR
STARTCHAR 0063
ENCODING 99
SWIDTH 791 0
DWIDTH 19 0
BBX 17 17 1 0
BITMAP
00FF80
01FF80
03FF80
07FF80
0FC780
1F0000
3E0000
7C0000
F80000
F00000
F00000
F00000
F00000
FFFF80
FFFF80
7FFF80
3FFF80
ENDCHAR
STARTCHAR 0064
ENCODING 100
SWIDTH 791 0
DWIDTH 19 0
BBX 17 17 1 0
BITMAP
FFFE00
FFFF00
FFFF80
FFFF80
F00780
F00780
F00780
F00780
F00F80
F01F00
F03F00
F07E00
F0FC00
FFF800
FFF000
FFE000
FF8000
ENDCHAR
STARTCHAR 0065
ENCODING 101
SWIDTH 791 0
DWIDTH 19 0
BBX 17 17 1 0
BITMAP
1FFF80
7FFF80
7FFF80
FFFF80
F80000
F00000
F00000
FFFF80
FFFF80
FFFF80
FFFF80
F00000
F00000
FFFC00
FFFC00
FFFC00
FFFC00
ENDCHAR
STARTCHAR 0066
ENCODING 102
SWIDTH 708 0
DWIDTH 17 0
BBX 15 17 1 0
BITMAP
3FFE
7FFE
7FFE
FFFE
F000
F000
F000
FFFE
FFFE
FFFE
FFFE
F000
F000
F000
F000
F000
F000
ENDCHAR
STARTCHAR 0067
ENCODING 103
SWIDTH 791 0
DWIDTH 19 0
BBX 17 17 1 0
BITMAP
00FF80
01FF80
07FF80
0FFF80
1F8780
3F0000
7E7F80
7C7F80
F87F80
F07F80
F00780
F00780
F00780
FFFF80
FFFF80
7FFF80
3FFF80
ENDCHAR
STARTCHAR 0068
ENCODING 104
SWIDTH 833 0
DWIDTH 20 0
BBX 17 17 1 0
BITMAP
F00780
F00780
F00780
F00780
F00780
F00780
FFFF80
FFFF80
FFFF80
FFFF80
F00780
F00780
F00780
F00780
F00780
F00780
F00780
ENDCHAR
STARTCHAR 0069
ENCODING 105
SWIDTH 291 0
DWIDTH 7 0
BBX 4 17 2 0
BITMAP
F0
F0
F0
F0
F0
F0
F0
F0
F0
F0
F0
F0
F0
F0
F0
F0
F0
ENDCHAR
STARTCHAR 006A
ENCODING 106
SWIDTH 791 0
DWIDTH 19 0
BBX 17 17 1 0
BITMAP
0FFF80
0FFF80
0FFF80
0FFF80
0F0780
000780
000780
000780
000780
000780
000780
000780
F00780
FFFF80
FFFF80
7FFF00
3FFE00
ENDCHAR
STARTCHAR 006B
ENCODING 107
SWIDTH 791 0
DWIDTH 19 0
BBX 17 17 1 0
BITMAP
F00F80
F03F80
F0FF80
F1FF80
F7F800
FFE000
FFC000
FF0000
FE0000
FF8000
FFC000
FFF000
F3FC00
F1FF80
F07F80
F01F80
F00780
ENDCHAR
STARTCHAR 006C
ENCODING 108
SWIDTH 666 0
DWIDTH 16 0
BBX 15 17 1 0
BITMAP
F000
F000
F000
F000
F000
F000
F000
F000
F000
F000
F000
F000
F000
FFFE
7FFE
7FFE
3FFE
ENDCHAR
STARTCHAR 006D
ENCODING 109
SWIDTH 916 0
DWIDTH 22 0
BBX 20 17 2 0
BITMAP
3E0F80
7F1FC0
FFBFE0
F7FDE0
F3F9F0
F1F0F0
F1F0F0
F0F0F0
F0F0F0
F0F0F0
F0F0F0
F0F0F0
F0F0F0
F0F0F0
F0F0F0
F0F0F0
F0F0F0
ENDCHAR
STARTCHAR 006E
ENCODING 110
SWIDTH 833 0
DWIDTH 20 0
BBX 17 17 1 0
BITMAP
7E0780
FF0780
FF0780
FF8780
F7C780
F3C780
F3E780
F1E780
F1F780
F0F780
F0FF80
F07F80
F07F80
F03F80
F01F80
F01F80
F00780
ENDCHAR
STARTCHAR 006F
ENCODING 111
SWIDTH 833 0
DWIDTH 20 0
BBX 17 17 1 0
BITMAP
1FFE00
7FFF00
7FFF80
FFFF80
F00780
F00780
F00780
F00780
F00780
F00780
F00780
F00780
F00780
7FFF80
7FFF80
7FFF00
1FFE00
ENDCHAR
STARTCHAR 0070
ENCODING 112
SWIDTH 833 0
DWIDTH 20 0
BBX 17 17 2 0
BITMAP
FFFC00
FFFF00
FFFF00
FFFF80
F00780
F00780
F00780
F00780
FFFF80
FFFF00
FFFF00
FFFC00
F00000
F00000
F00000
F00000
F00000
ENDCHAR
STARTCHAR 0071
ENCODING 113
SWIDTH 791 0
DWIDTH 19 0
BBX 18 17 1 0
BITMAP
1FFF00
7FFF80
7FFFC0
FFFFC0
E001C0
E001C0
E001C0
E001C0
E1E1C0
E1E1C0
E1E1C0
E1E1C0
E1E1C0
FFFFC0
7FFFC0
7FFF80
1FFF00
ENDCHAR
STARTCHAR 0072
ENCODING 114
SWIDTH 791 0
DWIDTH 19 0
BBX 17 17 1 0
BITMAP
FFFF00
FFFF80
FFFF80
FFFF80
F00780
F00780
FFFF80
FFFF80
FFFF80
FFFF00
FFC000
FFF000
F3F800
F1FF80
F07F80
F01F80
F00F80
ENDCHAR
STARTCHAR 0073
ENCODING 115
SWIDTH 833 0
DWIDTH 20 0
BBX 19 17 0 0
BITMAP
01FF80
03FF80
07FF80
0FFF80
1F0000
3E0000
7C0000
7FFFE0
FFFFE0
FFFFE0
7FFFE0
0007C0
000F80
1FFF00
1FFE00
1FFC00
1FF800
ENDCHAR
STARTCHAR 0074
ENCODING 116
SWIDTH 708 0
DWIDTH 17 0
BBX 15 17 1 0
BITMAP
FFFE
FFFE
FFFE
FFFE
F3C0
03C0
03C0
03C0
03C0
03C0
03C0
03C0
03C0
03C0
03C0
03C0
03C0
ENDCHAR
STARTCHAR 0075
ENCODING 117
SWIDTH 791 0
DWIDTH 19 0
BBX 17 17 1 0
BITMAP
F00780
F00780
F00780
F00780
F00780
F00780
F00780
F00780
F00780
F00780
F00780
F00780
F00780
FFFF80
7FFF80
7FFF00
1FFE00
ENDCHAR
STARTCHAR 0076
ENCODING 118
SWIDTH 833 0
DWIDTH 20 0
BBX 17 17 1 0
BITMAP
F00780
F00780
F00780
F00780
F00780
F00780
F00780
F00780
F00F80
F01F00
F03F00
F07E00
F0FC00
FFF800
7FF000
7FE000
1F8000
ENDCHAR
STARTCHAR 0077
ENCODING 119
SWIDTH 916 0
DWIDTH 22 0
BBX 20 17 1 0
BITMAP
F0F0F0
F0F0F0
F0F0F0
F0F0F0
F0F0F0
F0F0F0
F0F0F0
F0F0F0
F0F0F0
F0F0F0
F0F8F0
F1F8F0
F9FCF0
FBFFF0
7FDFF0
3F8FE0
1F07C0
ENDCHAR
STARTCHAR 0078
ENCODING 120
SWIDTH 750 0
DWIDTH 18 0
BBX 18 17 0 0
BITMAP
7C0F80
7C0F80
3E1F00
1F3E00
0FFC00
0FFC00
07F800
03F000
03E000
03F800
07F800
0FFC00
1F3E00
3F1F00
3E1F00
7C0F80
F807C0
ENDCHAR
STARTCHAR 0079
ENCODING 121
SWIDTH 708 0
DWIDTH 17 0
BBX 17 17 0 0
BITMAP
F80F80
780F00
7C1F00
3C1E00
1E1E00
1E3C00
0F3C00
0F7C00
07F800
07F800
03F000
03F000
01E000
1FE000
1FC000
1FC000
1F8000
ENDCHAR
STARTCHAR 007A
ENCODING 122
SWIDTH 750 0
DWIDTH 18 0
BBX 16 17 1 0
BITMAP
FFFE
FFFF
FFFF
FFFF
F07E
00FC
01F8
03E0
07C0
0F80
1F00
3E00
7C00
FFFF
FFFF
FFFF
7FFF
ENDCHAR
STARTCHAR 007B
ENCODING 123
SWIDTH 416 0
DWIDTH 10 0
BBX 9 25 0 -4
BITMAP
3F80
7F80
7F80
FF80
7800
7800
7C00
3C00
3C00
3E00
1E00
1E00
1E00
1E00
1E00
3E00
3C00
3C00
7C00
7800
7800
7F80
7F80
7F80
3F80
ENDCHAR
STARTCHAR 007C
ENCODING 124
SWIDTH 250 0
DWIDTH 6 0
BBX 4 21 2 -2
BITMAP
F0
F0
F0
F0
F0
F0
F0
F0
F0
F0
F0
F0
F0
F0
F0
F0
F0
F0
F0
F0
F0
ENDCHAR
STARTCHAR 007D
ENCODING 125
SWIDTH 416 0
DWIDTH 10 0
BBX 8 25 1 -4
BITMAP
FE
FF
FF
FF
0F
1F
1E
1E
3E
3C
3C
7C
78
7C
3C
3C
3E
1E
1E
1F
0F
FF
FF
FF
FE
ENDCHAR
STARTCHAR 007E
ENCODING 126
SWIDTH 541 0
DWIDTH 13 0
BBX 11 5 1 6
BITMAP
7860
FFE0
FFE0
FFE0
8FC0
ENDCHAR
STARTCHAR 00A2
ENCODING 162
SWIDTH 541 0
DWIDTH 13 0
BBX 11 17 1 0
BITMAP
0F00
0F00
0F00
3F80
7FC0
7FC0
FFE0
F000
F000
F000
FFE0
7FC0
3FC0
0F00
0F00
0F00
0F00
ENDCHAR
STARTCHAR 00A9
ENCODING 169
SWIDTH 875 0
DWIDTH 21 0
BBX 18 17 2 0
BITMAP
3FFE00
7FFF80
FFFF80
FFFF80
F0FBC0
F1FBC0
F383C0
F703C0
F603C0
F603C0
F7FBC0
F7FBC0
F003C0
FFFF80
FFFF80
7FFF80
3FFE00
ENDCHAR
STARTCHAR 00AE
ENCODING 174
SWIDTH 875 0
DWIDTH 21 0
BBX 18 17 1 0
BITMAP
1FFF00
7FFF80
7FFFC0
FFFFC0
F3FBC0
F31BC0
F31BC0
F3FBC0
F3C3C0
F3E3C0
F37BC0
F31BC0
F003C0
FFFFC0
7FFFC0
7FFF80
1FFF00
ENDCHAR
STARTCHAR 00BB
ENCODING 187
SWIDTH 1000 0
DWIDTH 24 0
BBX 0 0 0 0
BITMAP
ENDCHAR
STARTCHAR 2010
ENCODING 8208
SWIDTH 541 0
DWIDTH 13 0
BBX 11 3 1 7
BITMAP
FFE0
FFE0
FFE0
ENDCHAR
STARTCHAR 2018
ENCODING 8216
SWIDTH 333 0
DWIDTH 8 0
BBX 6 6 1 11
BITMAP
F0
F0
FC
FC
FC
7C
ENDCHAR
STARTCHAR 2019
ENCODING 8217
SWIDTH 333 0
DWIDTH 8 0
BBX 6 6 1 11
BITMAP
FC
FC
FC
FC
3C
3C
ENDCHAR
STARTCHAR 201C
ENCODING 8220
SWIDTH 625 0
DWIDTH 15 0
BBX 13 6 1 11
BITMAP
F1E0
F1E0
FDF8
FDF8
FDF8
7CF8
ENDCHAR
STARTCHAR 201D
ENCODING 8221
SWIDTH 666 0
DWIDTH 16 0
BBX 13 6 1 11
BITMAP
7CF8
FDF8
FDF8
7CF8
3C78
3C78
ENDCHAR
STARTCHAR 2122
ENCODING 8482
SWIDTH 833 0
DWIDTH 20 0
BBX 17 7 2 10
BITMAP
FEE700
D9AD80
199980
199980
199980
199980
199980
ENDCHAR
ENDFONT
